<?xml version="1.0" encoding="utf-8"?>
<!-- Generator: Adobe Illustrator 23.0.3, SVG Export Plug-In . SVG Version: 6.00 Build 0)  -->
<svg version="1.1" id="Layer_1" xmlns:serif="http://www.serif.com/"
	 xmlns="http://www.w3.org/2000/svg" xmlns:xlink="http://www.w3.org/1999/xlink" x="0px" y="0px" viewBox="0 0 2237.9 2267.7"
	 style="enable-background:new 0 0 2237.9 2267.7;" xml:space="preserve">
<style type="text/css">
	.st0{fill:#222221;}
</style>
<path class="st0" d="M1165.9,0c596.2,24.9,1072,522.8,1072,1133.4c0,626.5-501,1134.4-1118.9,1134.4C501,2267.7,0,1759.9,0,1133.4
	c0-276.2,97.3-529.3,259.2-726l162.7,117.2c-139,163.4-223,376.1-223,608.8c0,515.1,411.9,932.7,920,932.7
	c508.1,0,920-417.6,920-932.7c0-497.8-384.8-904.6-869.3-931.3L1165.9,0z M854.6,1505.8c-9.3,0-14-3.6-14-10.7
	c0-3.6,0.7-6.4,2.1-8.6l401.9-722.1c3.6-7.2,10-10.7,19.3-10.7h107.5c4.3,0,7.5,1.1,9.7,3.2c2.9,1.4,4.3,3.6,4.3,6.4
	c0,2.9-1.1,6.1-3.2,9.7l-400.8,722.1c-3.6,7.2-10,10.7-19.3,10.7H854.6z M1334.9,1514.4c-33,0-63.4-7.9-91.3-23.6
	c-27.9-16.5-50.1-38.7-66.6-66.6c-16.5-27.9-24.7-58.4-24.7-91.3c0-33,8.2-63,24.7-90.3c16.5-27.9,38.7-49.8,66.6-65.6
	c27.9-16.5,58.4-24.7,91.3-24.7c33,0,63,8.2,90.3,24.7c27.9,15.8,50.1,37.6,66.6,65.6c16.5,27.2,24.7,57.3,24.7,90.3
	c0,33-8.2,63.4-24.7,91.3c-15.8,27.9-37.6,50.1-65.6,66.6C1398.3,1506.5,1367.9,1514.4,1334.9,1514.4z M1334.9,1399.4
	c17.9,0,33-6.4,45.1-19.3c12.9-12.9,19.3-28.7,19.3-47.3c0-17.9-6.4-33.3-19.3-46.2c-12.2-12.9-27.2-19.3-45.1-19.3
	c-17.9,0-33.3,6.4-46.2,19.3c-12.9,12.2-19.3,27.6-19.3,46.2s6.1,34.4,18.3,47.3C1300.6,1393,1316.3,1399.4,1334.9,1399.4z
	 M904,1107.1c-33,0-63.4-7.9-91.3-23.6c-27.9-16.5-50.1-38.7-66.6-66.6c-16.5-27.9-24.7-58.4-24.7-91.3c0-33,8.2-63,24.7-90.3
	c16.5-27.9,38.7-49.8,66.6-65.6c27.9-16.5,58.4-24.7,91.3-24.7s63,8.2,90.3,24.7c27.9,15.8,50.1,37.6,66.6,65.6
	c16.5,27.2,24.7,57.3,24.7,90.3c0,33-8.2,63.4-24.7,91.3c-15.8,27.9-37.6,50.1-65.6,66.6C967.4,1099.3,937,1107.1,904,1107.1z
	 M904,992.1c17.9,0,33-6.4,45.1-19.3c12.9-12.9,19.3-28.7,19.3-47.3c0-17.9-6.4-33.3-19.3-46.2C937,866.4,921.9,860,904,860
	c-17.9,0-33.3,6.4-46.2,19.3c-12.9,12.2-19.3,27.6-19.3,46.2s6.1,34.4,18.3,47.3C869.6,985.7,885.4,992.1,904,992.1z"/>
</svg>
