<?xml version="1.0" encoding="UTF-8" standalone="no"?>
<!DOCTYPE svg PUBLIC "-//W3C//DTD SVG 1.1//EN" "http://www.w3.org/Graphics/SVG/1.1/DTD/svg11.dtd">
<svg width="100%" height="100%" viewBox="0 0 512 512" version="1.1" xmlns="http://www.w3.org/2000/svg" xmlns:xlink="http://www.w3.org/1999/xlink" xml:space="preserve" xmlns:serif="http://www.serif.com/" style="fill-rule:evenodd;clip-rule:evenodd;stroke-linejoin:round;stroke-miterlimit:2;">
    <g transform="matrix(1,0,0,1,5,5)">
        <path d="M182.111,499C220.157,499 251,468.157 251,430.111C251,392.065 220.157,361.222 182.111,361.222C144.065,361.222 113.222,392.065 113.222,430.111C113.222,468.157 144.065,499 182.111,499ZM498.89,416.333C498.89,408.729 494.571,402.556 489.251,402.556L315.75,402.556C310.43,402.556 306.111,408.729 306.111,416.333L306.111,443.889C306.111,451.493 310.43,457.667 315.75,457.667L489.251,457.667C494.571,457.667 498.89,451.493 498.89,443.889L498.89,416.333ZM251,246.407C251,284.453 220.157,315.296 182.111,315.296C144.065,315.296 113.222,284.453 113.222,246.407C113.222,208.361 144.065,177.519 182.111,177.519C220.157,177.519 251,208.361 251,246.407ZM498.89,232.63C498.89,225.025 494.571,218.852 489.251,218.852L315.75,218.852C310.43,218.852 306.111,225.025 306.111,232.63L306.111,260.185C306.111,267.789 310.43,273.963 315.75,273.963L489.251,273.963C494.571,273.963 498.89,267.789 498.89,260.185L498.89,232.63ZM140.778,71.889C140.778,109.935 109.935,140.778 71.889,140.778C33.843,140.778 3,109.935 3,71.889C3,33.843 33.843,3 71.889,3C109.935,3 140.778,33.843 140.778,71.889ZM499,58.111C499,50.507 492.826,44.333 485.222,44.333L237.222,44.333C229.618,44.333 223.444,50.507 223.444,58.111L223.444,85.667C223.444,93.271 229.618,99.444 237.222,99.444L485.222,99.444C492.826,99.444 499,93.271 499,85.667L499,58.111Z" style="fill-rule:nonzero;"/>
    </g>
</svg>
