<?xml version="1.0" encoding="UTF-8" standalone="no"?>
<!DOCTYPE svg PUBLIC "-//W3C//DTD SVG 1.1//EN" "http://www.w3.org/Graphics/SVG/1.1/DTD/svg11.dtd">
<svg width="100%" height="100%" viewBox="0 0 1361 1361" version="1.1" xmlns="http://www.w3.org/2000/svg" xmlns:xlink="http://www.w3.org/1999/xlink" xml:space="preserve" xmlns:serif="http://www.serif.com/" style="fill-rule:evenodd;clip-rule:evenodd;stroke-linejoin:round;stroke-miterlimit:2;">
    <g transform="matrix(1,0,0,1,0,-283.5)">
        <path d="M680.3,283.5L678.3,283.5C704.2,283.8 725.2,304.9 725.2,330.8C725.2,356.9 704,378.1 677.9,378.1C651.7,378.1 630.5,356.9 630.5,330.8C630.5,304.9 651.2,283.9 677,283.5C302.9,285.4 0,589.5 0,963.8C0,1339.3 304.8,1644.1 680.3,1644.1L683.5,1644.1C657.7,1643.6 637,1622.6 637,1596.8C637,1570.7 658.2,1549.5 684.3,1549.5C710.4,1549.5 731.6,1570.7 731.6,1596.8C731.6,1622.4 711.1,1643.3 685.7,1644.1C1058.6,1641.2 1360.6,1337.5 1360.6,963.8C1360.6,588.3 1055.8,283.5 680.3,283.5ZM612.3,403.5C643.8,403.5 669.3,429.1 669.3,460.5C669.3,492 643.8,517.5 612.3,517.5C580.9,517.5 555.3,492 555.3,460.5C555.3,429.1 580.9,403.5 612.3,403.5ZM520,609.3C520,572.7 549.7,543 586.3,543C622.9,543 652.6,572.7 652.6,609.3C652.6,645.9 622.9,675.6 586.3,675.6C549.8,675.6 520,645.9 520,609.3ZM546.5,776.6C546.5,734.8 580.4,700.9 622.1,700.9C663.9,700.9 697.8,734.8 697.8,776.6C697.8,818.4 663.9,852.3 622.1,852.3C580.4,852.3 546.5,818.4 546.5,776.6ZM595.8,963.7C595.8,916.2 634.4,877.6 681.9,877.6C729.5,877.6 768,916.2 768,963.7C768,1011.3 729.4,1049.8 681.9,1049.8C634.4,1049.8 595.8,1011.3 595.8,963.7ZM665.9,1150.9C665.9,1109.2 699.8,1075.2 741.6,1075.2C783.3,1075.2 817.2,1109.1 817.2,1150.9C817.2,1192.7 783.3,1226.6 741.6,1226.6C699.8,1226.5 665.9,1192.6 665.9,1150.9ZM746.6,1524C715.2,1524 689.6,1498.5 689.6,1467C689.6,1435.6 715.2,1410 746.6,1410C778.1,1410 803.6,1435.6 803.6,1467C803.7,1498.4 778.1,1524 746.6,1524ZM774.3,1384.6C737.7,1384.6 708,1354.9 708,1318.3C708,1281.7 737.7,1252 774.3,1252C810.9,1252 840.6,1281.7 840.6,1318.3C840.6,1354.9 810.9,1384.6 774.3,1384.6Z"/>
    </g>
</svg>
