<svg width="49" height="47" viewBox="0 0 49 47" fill="none" xmlns="http://www.w3.org/2000/svg">
<path opacity="0.2" d="M44.9002 47.4957C41.0276 50.4699 40.2935 60.7228 34.8448 61.5144C29.4134 62.2762 5.09588 48.3201 1.66324 44.3099C-1.75217 40.2699 5.0296 35.0159 4.44347 28.4333C3.8857 21.8671 3.34516 15.2711 6.71843 12.0483C10.0633 8.8092 17.2937 8.92694 23.0494 7.07963C28.805 5.23232 33.1031 1.39013 37.863 0.678093C42.6401 -0.0637761 47.8333 2.33795 52.2738 6.17439C56.7255 10.057 60.4072 15.4042 59.5622 20.4048C58.7171 25.4054 56.3816 31.8125 52.1635 35.5816C47.9566 39.3969 48.7273 44.5349 44.9002 47.4957Z" fill="#6F9DCF"/>
</svg>
