<?xml version="1.0" encoding="UTF-8" standalone="no"?>
<!DOCTYPE svg PUBLIC "-//W3C//DTD SVG 1.1//EN" "http://www.w3.org/Graphics/SVG/1.1/DTD/svg11.dtd">
<svg width="100%" height="100%" viewBox="0 0 20 20" version="1.1" xmlns="http://www.w3.org/2000/svg" xmlns:xlink="http://www.w3.org/1999/xlink" xml:space="preserve" xmlns:serif="http://www.serif.com/" style="fill-rule:evenodd;clip-rule:evenodd;stroke-linejoin:round;stroke-miterlimit:2;">
    <g transform="matrix(1.67256,0,0,1.67256,-0.856004,0)">
        <path d="M4.624,1.706L4.624,0.333C4.624,0.149 4.774,0 4.957,0L8.034,0C8.217,0 8.367,0.149 8.367,0.333L8.367,1.706L9.144,1.706L9.144,2.706L8.367,2.706L8.367,3.039L9.144,3.039L9.144,4.039L8.367,4.039L8.367,4.372L9.144,4.372L9.144,5.372L8.367,5.372L8.367,5.706L9.144,5.706L9.144,6.706L8.367,6.706L8.367,7.039L9.144,7.039L9.144,8.039L8.367,8.039L8.367,8.372L9.144,8.372L9.144,9.372L8.367,9.372L8.367,9.706L9.144,9.706L9.144,10.706L8.367,10.706L8.367,11.291L10.701,11.291L10.701,10.706L9.841,10.706L9.841,9.706L10.701,9.706L10.701,9.372L9.841,9.372L9.841,8.372L10.701,8.372L10.701,8.039L9.841,8.039L9.841,7.039L10.701,7.039L10.701,6.706L9.841,6.706L9.841,5.706L10.701,5.706L10.701,5.372L9.841,5.372L9.841,4.372L10.701,4.372L10.701,4.039L9.841,4.039L9.841,3.039L10.701,3.039L10.701,2.706L9.841,2.706L9.841,1.706L10.701,1.706L10.701,0.333C10.701,0.149 10.847,0 11.034,0C11.217,0 11.367,0.149 11.367,0.333L11.367,1.706L12.147,1.706L12.147,2.706L11.367,2.706L11.367,3.039L12.147,3.039L12.147,4.039L11.367,4.039L11.367,4.372L12.147,4.372L12.147,5.372L11.367,5.372L11.367,5.706L12.147,5.706L12.147,6.706L11.367,6.706L11.367,7.039L12.147,7.039L12.147,8.039L11.367,8.039L11.367,8.372L12.147,8.372L12.147,9.372L11.367,9.372L11.367,9.706L12.147,9.706L12.147,10.706L11.367,10.706L11.367,11.624C11.367,11.808 11.217,11.958 11.034,11.958L8.034,11.958C7.847,11.958 7.701,11.808 7.701,11.624L7.701,10.706L6.837,10.706L6.837,9.706L7.701,9.706L7.701,9.372L6.837,9.372L6.837,8.372L7.701,8.372L7.701,8.039L6.837,8.039L6.837,7.039L7.701,7.039L7.701,6.706L6.837,6.706L6.837,5.706L7.701,5.706L7.701,5.372L6.837,5.372L6.837,4.372L7.701,4.372L7.701,4.039L6.837,4.039L6.837,3.039L7.701,3.039L7.701,2.706L6.837,2.706L6.837,1.706L7.701,1.706L7.701,0.667L5.291,0.667L5.291,1.706L6.141,1.706L6.141,2.706L5.291,2.706L5.291,3.039L6.141,3.039L6.141,4.039L5.291,4.039L5.291,4.372L6.141,4.372L6.141,5.372L5.291,5.372L5.291,5.706L6.141,5.706L6.141,6.706L5.291,6.706L5.291,7.039L6.141,7.039L6.141,8.039L5.291,8.039L5.291,8.372L6.141,8.372L6.141,9.372L5.291,9.372L5.291,9.706L6.141,9.706L6.141,10.706L5.291,10.706L5.291,11.624C5.291,11.808 5.141,11.958 4.957,11.958L1.917,11.958C1.734,11.958 1.584,11.808 1.584,11.624L1.584,10.706L0.834,10.706L0.834,9.706L1.584,9.706L1.584,9.372L0.834,9.372L0.834,8.372L1.584,8.372L1.584,8.039L0.834,8.039L0.834,7.039L1.584,7.039L1.584,6.706L0.834,6.706L0.834,5.706L1.584,5.706L1.584,5.372L0.834,5.372L0.834,4.372L1.584,4.372L1.584,4.039L0.834,4.039L0.834,3.039L1.584,3.039L1.584,2.706L0.834,2.706L0.834,1.706L1.584,1.706L1.584,0.333C1.584,0.149 1.734,0 1.917,0C2.101,0 2.251,0.149 2.251,0.333L2.251,1.706L3.141,1.706L3.141,2.706L2.251,2.706L2.251,3.039L3.141,3.039L3.141,4.039L2.251,4.039L2.251,4.372L3.141,4.372L3.141,5.372L2.251,5.372L2.251,5.706L3.141,5.706L3.141,6.706L2.251,6.706L2.251,7.039L3.141,7.039L3.141,8.039L2.251,8.039L2.251,8.372L3.141,8.372L3.141,9.372L2.251,9.372L2.251,9.706L3.141,9.706L3.141,10.706L2.251,10.706L2.251,11.291L4.624,11.291L4.624,10.706L3.834,10.706L3.834,9.706L4.624,9.706L4.624,9.372L3.834,9.372L3.834,8.372L4.624,8.372L4.624,8.039L3.834,8.039L3.834,7.039L4.624,7.039L4.624,6.706L3.834,6.706L3.834,5.706L4.624,5.706L4.624,5.372L3.834,5.372L3.834,4.372L4.624,4.372L4.624,4.039L3.834,4.039L3.834,3.039L4.624,3.039L4.624,2.706L3.834,2.706L3.834,1.706L4.624,1.706Z"/>
    </g>
</svg>
